bicep_curl
version=1
nRows=223
nColumns=3
inDegrees=yes

# SIMM Motion File Header:
name bicep_curl
datacolumns 3
datarows 223
otherdata 1
range 0.0000 0.2220
endheader
time	/jointset/r_shoulder/r_shoulder_elev/value	/jointset/r_elbow/r_elbow_flex/value
0.0000	0.0000	116.6200
0.0010	0.0000	116.4199
0.0020	0.0000	116.2201
0.0030	0.0000	116.0204
0.0040	0.0000	115.8210
0.0050	0.0000	115.6218
0.0060	0.0000	115.4228
0.0070	0.0000	115.2240
0.0080	0.0000	115.0254
0.0090	0.0000	114.8270
0.0100	0.0000	114.6288
0.0110	0.0000	114.4308
0.0120	0.0000	114.2331
0.0130	0.0000	114.0355
0.0140	0.0000	113.8382
0.0150	0.0000	113.6410
0.0160	0.0000	113.4441
0.0170	0.0000	113.2474
0.0180	0.0000	113.0509
0.0190	0.0000	112.8546
0.0200	0.0000	112.6585
0.0210	0.0000	112.4626
0.0220	0.0000	112.2669
0.0230	0.0000	112.0714
0.0240	0.0000	111.8762
0.0250	0.0000	111.6811
0.0260	0.0000	111.4863
0.0270	0.0000	111.2917
0.0280	0.0000	111.0972
0.0290	0.0000	110.9030
0.0300	0.0000	110.7090
0.0310	0.0000	110.5152
0.0320	0.0000	110.3216
0.0330	0.0000	110.1283
0.0340	0.0000	109.9351
0.0350	0.0000	109.7421
0.0360	0.0000	109.5494
0.0370	0.0000	109.3568
0.0380	0.0000	109.1645
0.0390	0.0000	108.9724
0.0400	0.0000	108.7804
0.0410	0.0000	108.5887
0.0420	0.0000	108.3972
0.0430	0.0000	108.2059
0.0440	0.0000	108.0149
0.0450	0.0000	107.8240
0.0460	0.0000	107.6333
0.0470	0.0000	107.4429
0.0480	0.0000	107.2526
0.0490	0.0000	107.0626
0.0500	0.0000	106.8728
0.0510	0.0000	106.6831
0.0520	0.0000	106.4937
0.0530	0.0000	106.3045
0.0540	0.0000	106.1155
0.0550	0.0000	105.9267
0.0560	0.0000	105.7382
0.0570	0.0000	105.5498
0.0580	0.0000	105.3616
0.0590	0.0000	105.1737
0.0600	0.0000	104.9860
0.0610	0.0000	104.7984
0.0620	0.0000	104.6111
0.0630	0.0000	104.4240
0.0640	0.0000	104.2371
0.0650	0.0000	104.0504
0.0660	0.0000	103.8639
0.0670	0.0000	103.6776
0.0680	0.0000	103.4915
0.0690	0.0000	103.3057
0.0700	0.0000	103.1200
0.0710	0.0000	102.9346
0.0720	0.0000	102.7494
0.0730	0.0000	102.5643
0.0740	0.0000	102.3795
0.0750	0.0000	102.1949
0.0760	0.0000	102.0105
0.0770	0.0000	101.8263
0.0780	0.0000	101.6423
0.0790	0.0000	101.4586
0.0800	0.0000	101.2750
0.0810	0.0000	101.0916
0.0820	0.0000	100.9085
0.0830	0.0000	100.7256
0.0840	0.0000	100.5428
0.0850	0.0000	100.3603
0.0860	0.0000	100.1780
0.0870	0.0000	99.9959
0.0880	0.0000	99.8140
0.0890	0.0000	99.6323
0.0900	0.0000	99.4508
0.0910	0.0000	99.2696
0.0920	0.0000	99.0885
0.0930	0.0000	98.9077
0.0940	0.0000	98.7270
0.0950	0.0000	98.5466
0.0960	0.0000	98.3664
0.0970	0.0000	98.1863
0.0980	0.0000	98.0065
0.0990	0.0000	97.8269
0.1000	0.0000	97.6475
0.1010	0.0000	97.4684
0.1020	0.0000	97.2894
0.1030	0.0000	97.1106
0.1040	0.0000	96.9321
0.1050	0.0000	96.7537
0.1060	0.0000	96.5756
0.1070	0.0000	96.3977
0.1080	0.0000	96.2200
0.1090	0.0000	96.0424
0.1100	0.0000	95.8651
0.1110	0.0000	95.6881
0.1120	0.0000	95.5112
0.1130	0.0000	95.3345
0.1140	0.0000	95.1580
0.1150	0.0000	94.9818
0.1160	0.0000	94.8057
0.1170	0.0000	94.6299
0.1180	0.0000	94.4543
0.1190	0.0000	94.2788
0.1200	0.0000	94.1036
0.1210	0.0000	93.9286
0.1220	0.0000	93.7538
0.1230	0.0000	93.5792
0.1240	0.0000	93.4049
0.1250	0.0000	93.2307
0.1260	0.0000	93.0567
0.1270	0.0000	92.8830
0.1280	0.0000	92.7094
0.1290	0.0000	92.5361
0.1300	0.0000	92.3630
0.1310	0.0000	92.1901
0.1320	0.0000	92.0174
0.1330	0.0000	91.8449
0.1340	0.0000	91.6726
0.1350	0.0000	91.5005
0.1360	0.0000	91.3286
0.1370	0.0000	91.1570
0.1380	0.0000	90.9855
0.1390	0.0000	90.8143
0.1400	0.0000	90.6432
0.1410	0.0000	90.4724
0.1420	0.0000	90.3018
0.1430	0.0000	90.1314
0.1440	0.0000	89.9612
0.1450	0.0000	89.7912
0.1460	0.0000	89.6214
0.1470	0.0000	89.4518
0.1480	0.0000	89.2825
0.1490	0.0000	89.1133
0.1500	0.0000	88.9444
0.1510	0.0000	88.7756
0.1520	0.0000	88.6071
0.1530	0.0000	88.4388
0.1540	0.0000	88.2707
0.1550	0.0000	88.1028
0.1560	0.0000	87.9351
0.1570	0.0000	87.7676
0.1580	0.0000	87.6003
0.1590	0.0000	87.4332
0.1600	0.0000	87.2664
0.1610	0.0000	87.0997
0.1620	0.0000	86.9333
0.1630	0.0000	86.7670
0.1640	0.0000	86.6010
0.1650	0.0000	86.4352
0.1660	0.0000	86.2696
0.1670	0.0000	86.1042
0.1680	0.0000	85.9390
0.1690	0.0000	85.7740
0.1700	0.0000	85.6093
0.1710	0.0000	85.4447
0.1720	0.0000	85.2803
0.1730	0.0000	85.1162
0.1740	0.0000	84.9523
0.1750	0.0000	84.7885
0.1760	0.0000	84.6250
0.1770	0.0000	84.4617
0.1780	0.0000	84.2986
0.1790	0.0000	84.1357
0.1800	0.0000	83.9730
0.1810	0.0000	83.8105
0.1820	0.0000	83.6483
0.1830	0.0000	83.4862
0.1840	0.0000	83.3244
0.1850	0.0000	83.1627
0.1860	0.0000	83.0013
0.1870	0.0000	82.8401
0.1880	0.0000	82.6791
0.1890	0.0000	82.5183
0.1900	0.0000	82.3577
0.1910	0.0000	82.1973
0.1920	0.0000	82.0371
0.1930	0.0000	81.8771
0.1940	0.0000	81.7174
0.1950	0.0000	81.5578
0.1960	0.0000	81.3985
0.1970	0.0000	81.2393
0.1980	0.0000	81.0804
0.1990	0.0000	80.9217
0.2000	0.0000	80.7632
0.2010	0.0000	80.6049
0.2020	0.0000	80.4468
0.2030	0.0000	80.2889
0.2040	0.0000	80.1313
0.2050	0.0000	79.9738
0.2060	0.0000	79.8165
0.2070	0.0000	79.6595
0.2080	0.0000	79.5027
0.2090	0.0000	79.3460
0.2100	0.0000	79.1896
0.2110	0.0000	79.0334
0.2120	0.0000	78.8774
0.2130	0.0000	78.7216
0.2140	0.0000	78.5660
0.2150	0.0000	78.4106
0.2160	0.0000	78.2555
0.2170	0.0000	78.1005
0.2180	0.0000	77.9458
0.2190	0.0000	77.7912
0.2200	0.0000	77.6369
0.2210	0.0000	77.4828
0.2220	0.0000	77.3289
